<svg xmlns="http://www.w3.org/2000/svg" xmlns:xlink="http://www.w3.org/1999/xlink" width="77" height="54" viewBox="0 0 77 54">
  <defs>
    <clipPath id="clip-path">
      <rect id="Rectangle_127" data-name="Rectangle 127" width="77" height="54" transform="translate(0 -0.044)" fill="#0c0c0c"/>
    </clipPath>
  </defs>
  <g id="Mask_Group_19" data-name="Mask Group 19" transform="translate(0 0.044)" clip-path="url(#clip-path)">
    <g id="_002-beds" data-name="002-beds" transform="translate(8.041 0.086)">
      <path id="Path_115" data-name="Path 115" d="M63.956,82.48a3.457,3.457,0,0,0,.338-1.494V76.019a3.481,3.481,0,0,0-3.477-3.477h-1.5a2.238,2.238,0,0,0-2.221-1.987H25.549a.993.993,0,0,0-.993.993v.993H21.9a3.479,3.479,0,0,0,.309-1.921L20.846,59.693a3.483,3.483,0,0,0-3.45-3.046H16.111a3.457,3.457,0,0,0-1.494.338,3.481,3.481,0,0,0-3.473-3.318H8.66a.993.993,0,0,0-.993.993v4.967H9.654V55.654h1.49a1.492,1.492,0,0,1,1.49,1.49v33.28H9.654V61.614H7.667V97.378a.993.993,0,0,0,.993.993h2.381A5.953,5.953,0,0,0,16.7,94.3l.628-1.885H51.378V90.424H14.621V84.464H63.8a1.492,1.492,0,0,1,1.49,1.49v4.47H53.365v1.987h4.251l.628,1.885A5.953,5.953,0,0,0,63.9,98.372H66.28a.993.993,0,0,0,.993-.993V85.954A3.481,3.481,0,0,0,63.956,82.48ZM15.229,92.411l-.419,1.257a3.968,3.968,0,0,1-3.77,2.717H9.654V92.411Zm42.11-19.621V78.5H32.5V72.542H57.091A.248.248,0,0,1,57.339,72.791Zm-30.8-.248h3.974V78.5H26.542ZM16.111,58.634H17.4a1.493,1.493,0,0,1,1.478,1.305L20.24,70.867a1.49,1.49,0,0,1-1.478,1.675H14.621V60.124A1.492,1.492,0,0,1,16.111,58.634Zm-1.49,23.843V74.529h9.934V79.5a.993.993,0,0,0,.993.993H58.332a.993.993,0,0,0,.993-.993V74.529h1.49a1.492,1.492,0,0,1,1.49,1.49v4.967a1.492,1.492,0,0,1-1.49,1.49ZM65.286,96.385H63.9a3.968,3.968,0,0,1-3.77-2.717l-.419-1.257h5.576Z" transform="translate(-7.667 -44.726)" fill="#0c0c0c"/>
      <path id="Path_116" data-name="Path 116" d="M135.493,81.3l2.06,1.127,1.127,2.06a.993.993,0,0,0,1.743,0l1.127-2.06,2.06-1.127a.993.993,0,0,0,0-1.743l-2.06-1.127-1.127-2.06a.993.993,0,0,0-1.743,0l-1.127,2.06-2.06,1.127a.993.993,0,0,0,0,1.743Zm3.269-1.267a.994.994,0,0,0,.395-.395l.395-.722.395.722a.993.993,0,0,0,.395.395l.722.395-.722.395a.992.992,0,0,0-.395.395l-.395.722-.395-.722a.993.993,0,0,0-.395-.395l-.722-.395Z" transform="translate(-101.983 -61.166)" fill="#0c0c0c"/>
      <path id="Path_117" data-name="Path 117" d="M88.684,39.947l2.06,1.127,1.127,2.06a.993.993,0,0,0,1.743,0l1.127-2.06,2.06-1.127a.993.993,0,0,0,0-1.743l-2.06-1.127-1.127-2.06a.993.993,0,0,0-1.743,0l-1.127,2.06L88.684,38.2a.993.993,0,0,0,0,1.743Zm3.269-1.267a.992.992,0,0,0,.395-.395l.395-.722.395.722a.994.994,0,0,0,.395.395l.722.395-.722.395a.994.994,0,0,0-.395.395l-.395.722-.395-.722a.994.994,0,0,0-.395-.395l-.722-.395Z" transform="translate(-67.305 -30.526)" fill="#0c0c0c"/>
      <path id="Path_118" data-name="Path 118" d="M160.708,24.614l2.06,1.127L163.9,27.8a.993.993,0,0,0,1.743,0l1.127-2.06,2.06-1.127a.993.993,0,0,0,0-1.743l-2.06-1.127-1.127-2.06a.993.993,0,0,0-1.743,0l-1.127,2.06-2.06,1.127a.993.993,0,0,0,0,1.743Zm3.269-1.267a.993.993,0,0,0,.395-.395l.395-.722.395.722a.992.992,0,0,0,.395.395l.722.395-.722.395a.994.994,0,0,0-.395.395l-.395.722-.395-.722a.993.993,0,0,0-.395-.395l-.722-.395Z" transform="translate(-120.663 -19.167)" fill="#0c0c0c"/>
    </g>
  </g>
</svg>
