<?xml version="1.0" encoding="iso-8859-1"?>
<!-- Generator: Adobe Illustrator 19.0.0, SVG Export Plug-In . SVG Version: 6.00 Build 0)  -->
<svg version="1.1" id="Layer_1" xmlns="http://www.w3.org/2000/svg" xmlns:xlink="http://www.w3.org/1999/xlink" x="0px" y="0px"
	 viewBox="0 0 480 480" style="enable-background:new 0 0 480 480;" xml:space="preserve">
<g>
	<g>
		<g>
			<path d="M208,32c-4.424,0-8,3.584-8,8v32c0,4.416,3.576,8,8,8s8-3.584,8-8V40C216,35.584,212.424,32,208,32z"/>
			<path d="M240,32c-4.424,0-8,3.584-8,8v32c0,4.416,3.576,8,8,8s8-3.584,8-8V40C248,35.584,244.424,32,240,32z"/>
			<path d="M272,32c-4.424,0-8,3.584-8,8v32c0,4.416,3.576,8,8,8s8-3.584,8-8V40C280,35.584,276.424,32,272,32z"/>
			<path d="M440,152h-48c-0.064,0-0.112,0.032-0.176,0.032c-5.768-7.64-14.112-13.248-23.824-15.224V120h8c4.424,0,8-3.584,8-8
				s-3.576-8-8-8h-8C368,46.656,321.344,0,264,0h-48c-57.344,0-104,46.656-104,104h-8c-4.424,0-8,3.584-8,8s3.576,8,8,8h8v16.808
				c-9.72,1.984-18.056,7.584-23.824,15.224c-0.064,0-0.112-0.032-0.176-0.032H40c-22.056,0-40,17.944-40,40c0,4.416,3.576,8,8,8h80
				h24v8c0,10.048,6.216,18.64,14.992,22.208l-26.368,177.984c-13.912,0.96-26.544,7.712-35.024,19
				c-2.648,3.528-1.936,8.544,1.592,11.2c3.52,2.64,8.552,1.944,11.2-1.592c4.912-6.544,11.952-10.704,19.784-12.136l-1.264,8.52
				C87.152,436.232,80,445.248,80,456c0,13.232,10.768,24,24,24s24-10.768,24-24c0-10.048-6.216-18.64-14.992-22.216l1.184-7.968
				C126.824,430.096,136,441.936,136,456c0,4.416,3.576,8,8,8s8-3.584,8-8c0-22.112-15.048-40.728-35.424-46.272L120.384,384H152v8
				c0,13.232,10.768,24,24,24h128c13.232,0,24-10.768,24-24v-8h31.616l3.808,25.728C343.048,415.272,328,433.888,328,456
				c0,4.416,3.576,8,8,8s8-3.584,8-8c0-14.064,9.176-25.904,21.808-30.184l1.184,7.968C358.216,437.36,352,445.952,352,456
				c0,13.232,10.768,24,24,24s24-10.768,24-24c0-10.752-7.152-19.768-16.92-22.816l-1.264-8.52c7.84,1.432,14.888,5.592,19.8,12.152
				c2.656,3.536,7.664,4.256,11.2,1.6c3.528-2.656,4.248-7.664,1.592-11.2c-8.48-11.304-21.12-18.064-35.04-19.024L353,230.208
				c8.784-3.568,15-12.16,15-22.208v-8h24h80c4.424,0,8-3.584,8-8C480,169.944,462.056,152,440,152z M80,176v8H17.368
				c3.304-9.312,12.2-16,22.632-16h40V176z M104,464c-4.416,0-8-3.592-8-8c0-4.408,3.584-8,8-8s8,3.592,8,8
				C112,460.408,108.416,464,104,464z M376,448c4.416,0,8,3.592,8,8c0,4.408-3.584,8-8,8c-4.416,0-8-3.592-8-8
				C368,451.592,371.584,448,376,448z M216,16h48c48.52,0,88,39.48,88,88H128C128,55.48,167.48,16,216,16z M352,120v16h-24v-16H352z
				 M312,120v16h-16v-16H312z M280,120v16h-16v-16H280z M248,120v16h-16v-16H248z M216,120v16h-16v-16H216z M184,120v16h-16v-16H184
				z M128,120h24v16h-24V120z M152,368h-29.248l5.928-40H152V368z M128,208v-8h16v8c0,4.408-3.584,8-8,8S128,212.408,128,208z
				 M312,392c0,4.408-3.584,8-8,8H176c-4.416,0-8-3.592-8-8v-8h144V392z M168,368v-40h16v40H168z M200,368v-40h16v40H200z M232,368
				v-40h16v40H232z M264,368v-40h16v40H264z M312,368h-16v-40h16V368z M131.048,312l12.024-81.184
				C152.848,227.768,160,218.752,160,208v-8h24v32c0,22.056,17.944,40,40,40h32c22.056,0,40-17.944,40-40v-32h24v8
				c0,10.752,7.152,19.768,16.92,22.816L348.952,312H131.048z M240,248c17.648,0,32-14.352,32-32c0-5.856-1.696-11.272-4.448-16H280
				v32c0,13.232-10.768,24-24,24h-32c-13.232,0-24-10.768-24-24v-32h12.448c-2.752,4.728-4.448,10.144-4.448,16
				C208,233.648,222.352,248,240,248z M224,216c0-8.824,7.176-16,16-16c8.824,0,16,7.176,16,16c0,8.824-7.176,16-16,16
				C231.176,232,224,224.824,224,216z M336,208v-8h16v8c0,4.408-3.584,8-8,8C339.584,216,336,212.408,336,208z M357.248,368H328v-40
				h23.32L357.248,368z M384,184H96v-8c0-13.232,10.768-24,24-24h240c13.232,0,24,10.768,24,24V184z M400,184v-8v-8h40
				c10.432,0,19.328,6.688,22.632,16H400z"/>
		</g>
	</g>
</g>
<g>
</g>
<g>
</g>
<g>
</g>
<g>
</g>
<g>
</g>
<g>
</g>
<g>
</g>
<g>
</g>
<g>
</g>
<g>
</g>
<g>
</g>
<g>
</g>
<g>
</g>
<g>
</g>
<g>
</g>
</svg>
