<svg id="outline_expand" enable-background="new 0 0 512 512" height="512" viewBox="0 0 512 512" width="512" xmlns="http://www.w3.org/2000/svg"><g><path d="m132.404 207.51-15.97.98c.708 11.534 2.28 23.366 4.673 35.169 7.509 37.03 22.419 70.221 40.908 91.063l11.969-10.618c-16.673-18.795-30.231-49.276-37.196-83.625-2.246-11.079-3.722-22.172-4.384-32.969z"/><path d="m207.076 156.083 13.759-8.167c-18.451-31.081-41.134-46.469-62.232-42.231-25.673 5.163-41.991 38.198-42.586 86.216l15.999.198c.481-38.824 12.433-67.248 29.741-70.728 13.827-2.787 30.765 10.197 45.319 34.712z"/><path d="m114.397 432.546c-6.488 1.307-12.828-2.902-14.138-9.387l-68.087-337.195c-1.31-6.486 2.902-12.828 9.388-14.137l196.043-39.586c6.485-1.309 12.828 2.901 14.138 9.388l15.684-3.167c-3.056-15.134-17.856-24.957-32.988-21.904l-196.044 39.586c-15.133 3.056-24.96 17.854-21.904 32.988l68.087 337.195c2.68 13.272 14.39 22.461 27.437 22.461 1.831 0 3.689-.181 5.551-.557l28.02-5.658-3.167-15.684z"/><path d="m129.628 396.825c-1.083.219-2.138-.483-2.356-1.564l-59.378-294.065c-.218-1.081.483-2.138 1.564-2.356l28.125-5.679-3.167-15.684-28.125 5.679c-9.729 1.965-16.046 11.479-14.081 21.207l59.378 294.065c.952 4.713 3.682 8.773 7.687 11.433 2.986 1.983 6.415 3.01 9.919 3.01 1.196 0 2.401-.12 3.6-.362l20.789-4.198-3.167-15.684z"/><path d="m224.728 69.527 2.771 13.723 15.684-3.167-2.771-13.723c-1.964-9.729-11.475-16.045-21.207-14.081l-108.788 21.967 3.167 15.684 108.789-21.967c1.079-.218 2.136.483 2.355 1.564z"/><path d="m492.244 121.769c-3.739-6.478-9.777-11.11-17.002-13.046l-121.171-32.468-4.142 15.455 121.171 32.468c3.096.83 5.684 2.815 7.287 5.591s2.028 6.01 1.199 9.106l-89.034 332.279c-.83 3.096-2.815 5.684-5.591 7.286s-6.01 2.028-9.105 1.199l-53.786-14.412-4.141 15.455 53.785 14.412c2.413.646 4.86.966 7.292.966 4.852 0 9.64-1.272 13.955-3.763 6.477-3.739 11.11-9.777 13.046-17.002l89.034-332.278c1.936-7.225.942-14.771-2.797-21.248z"/><path d="m174.185 413.178 89.034-332.278c1.712-6.392 8.303-10.2 14.697-8.485l56.014 15.009 4.141-15.455-56.013-15.009c-7.225-1.936-14.771-.942-21.247 2.797-6.478 3.739-11.11 9.777-13.046 17.002l-89.035 332.277c-3.996 14.913 4.886 30.297 19.799 34.293l123.401 33.065 4.141-15.455-123.4-33.065c-6.392-1.712-10.199-8.305-8.486-14.696z"/><path d="m330.534 305.707-14.691 11.532-23.592-58.775 49.819-39.105 23.592 58.775-18.601 14.601 9.879 12.586 23.321-18.305c2.797-2.195 3.809-5.973 2.485-9.273l-29.8-74.243c-.938-2.337-2.921-4.096-5.354-4.748-2.433-.65-5.03-.12-7.01 1.435l-62.929 49.396c-2.797 2.195-3.809 5.973-2.485 9.273l29.8 74.243c.938 2.337 2.921 4.096 5.354 4.748.683.183 1.379.272 2.07.272 1.772 0 3.516-.589 4.94-1.707l23.082-18.118z"/><path d="m300.82 95.115c-2.583-.693-5.343-.047-7.352 1.718l-21.667 19.042c-2.426 2.132-3.332 5.514-2.297 8.573l9.243 27.323c.857 2.534 2.924 4.472 5.508 5.164.684.183 1.379.272 2.07.272 1.921 0 3.804-.692 5.282-1.991l21.667-19.041c2.426-2.132 3.332-5.514 2.297-8.573l-9.243-27.324c-.857-2.532-2.924-4.47-5.508-5.163zm-10.76 40.162-3.689-10.904 8.646-7.599 3.689 10.904z"/><path d="m369.515 395.117c-2.584-.691-5.342-.047-7.352 1.718l-21.666 19.041c-2.426 2.132-3.332 5.514-2.297 8.573l9.243 27.323c.857 2.534 2.924 4.472 5.508 5.164.684.183 1.379.272 2.07.272 1.92 0 3.804-.692 5.282-1.991l21.666-19.041c2.426-2.132 3.332-5.514 2.297-8.573l-9.243-27.323c-.857-2.532-2.924-4.47-5.508-5.163zm-10.761 40.161-3.689-10.904 8.646-7.599 3.689 10.904z"/></g></svg>