<svg enable-background="new 0 0 512 512" height="512" viewBox="0 0 512 512" width="512" xmlns="http://www.w3.org/2000/svg"><path d="m460.845 379.348-165.093-151.098-14.711-205.96c-.893-12.499-11.408-22.29-23.939-22.29h-2.204c-12.531 0-23.046 9.791-23.939 22.29l-14.711 205.96-165.064 151.072c-9.363 8.413-10.613 22.76-2.845 32.664l1.367 1.743c4.702 5.995 11.771 9.169 18.927 9.169 4.637 0 9.31-1.333 13.397-4.096l139.462-90.79-29.358 158.532c-.076.407-.119.82-.131 1.234l-.667 24 15.994.444.649-23.377 32.015-172.879 16.006-10.42 16.006 10.42 31.994 172.768v23.266h16v-24c0-.489-.045-.976-.134-1.457l-29.358-158.532 139.462 90.79c10.393 7.026 24.575 4.807 32.325-5.074l1.366-1.742c7.759-9.893 6.521-24.221-2.816-32.637zm-204.829-91.348h-.032c-17.638-.009-31.984-14.36-31.984-32 0-17.645 14.355-32 32-32s32 14.355 32 32c0 17.64-14.346 31.991-31.984 32zm-9.098-264.57c.298-4.166 3.803-7.43 7.98-7.43h2.204c4.177 0 7.682 3.264 7.98 7.43l13.591 190.271c-6.756-3.636-14.478-5.701-22.673-5.701s-15.917 2.065-22.673 5.701zm-173.682 382.004c-.047.031-.094.062-.141.094-3.465 2.362-8.21 1.627-10.799-1.673l-1.367-1.743c-2.589-3.301-2.173-8.084 1.003-10.938l146.091-133.707c.563 18.653 11.82 34.665 27.835 42.099l-7.47 4.863c-.002.001-.004.003-.006.004zm377.834-3.322-1.366 1.742c-2.59 3.301-7.333 4.037-10.8 1.674-.047-.032-.094-.063-.141-.094l-155.146-101c-.002-.001-.004-.003-.006-.004l-7.47-4.863c16.015-7.434 27.272-23.445 27.835-42.099l146.091 133.707c.018.017.037.033.055.05 3.122 2.803 3.538 7.586.948 10.887z"/><path d="m248 248h16v16h-16z"/><path d="m248 416h16v96h-16z"/><path d="m248 384h16v16h-16z"/><path d="m248 352h16v16h-16z"/><path d="m308.74 79.668c37.156 11.096 70.575 34.336 94.102 65.438 24.309 32.137 37.158 70.483 37.158 110.894 0 21.048-3.522 41.685-10.469 61.337l15.085 5.332c7.554-21.369 11.384-43.799 11.384-66.669 0-43.923-13.969-85.607-40.397-120.546-21.99-29.072-51.944-51.825-85.598-65.296l26.04-15.255-8.088-13.806-40.972 24.003c-2.748 1.61-4.28 4.697-3.898 7.859.381 3.163 2.601 5.797 5.653 6.709z"/><path d="m360.737 182.399c15.219 21.615 23.263 47.065 23.263 73.601 0 10.184-1.199 20.318-3.562 30.122l15.555 3.75c2.658-11.031 4.007-22.427 4.007-33.872 0-29.851-9.053-58.487-26.181-82.812-16.742-23.778-39.916-41.748-67.017-51.968l-5.646 14.971c24.089 9.083 44.692 25.062 59.581 46.208z"/><path d="m210.821 136.199-5.648-14.97c-27.095 10.223-50.263 28.194-67 51.969-17.123 24.323-26.173 52.956-26.173 82.802 0 11.448 1.349 22.846 4.009 33.875l15.554-3.751c-2.364-9.803-3.563-19.938-3.563-30.124 0-26.531 8.042-51.979 23.256-73.591 14.885-21.144 35.481-37.123 59.565-46.21z"/><path d="m71.967 328 2.93.012h.033c2.59 0 5.021-1.254 6.522-3.368 1.507-2.122 1.888-4.845 1.02-7.299-6.949-19.655-10.472-40.295-10.472-61.345 0-84.011 56.745-157.291 137.992-178.203l-3.988-15.495c-88.32 22.733-150.004 102.384-150.004 193.698 0 17.58 2.264 34.901 6.742 51.681l-27.771-11.108-5.942 14.855 40 16c.934.374 1.931.568 2.938.572z"/><path d="m456 64h16v16h-16z"/><path d="m456 96h16v16h-16z"/><path d="m440 80h16v16h-16z"/><path d="m472 80h16v16h-16z"/><path d="m136 416h16v16h-16z"/><path d="m136 448h16v16h-16z"/><path d="m120 432h16v16h-16z"/><path d="m152 432h16v16h-16z"/></svg>